<svg width="1200" height="720" viewBox="0 0 1200 720" fill="none" xmlns="http://www.w3.org/2000/svg">
  <rect width="1200" height="720" rx="40" fill="#F4F6F5"/>
  <rect x="80" y="80" width="460" height="70" rx="20" fill="#C9DAD6"/>
  <rect x="80" y="170" width="520" height="22" rx="11" fill="#E2ECEA"/>

  <rect x="80" y="240" width="520" height="420" rx="30" fill="#FFFFFF" stroke="#C7D6D3" stroke-width="2"/>
  <rect x="640" y="240" width="480" height="420" rx="30" fill="#FFFFFF" stroke="#C7D6D3" stroke-width="2"/>

  <rect x="130" y="300" width="420" height="34" rx="17" fill="#EEF3F2"/>
  <rect x="130" y="350" width="340" height="22" rx="11" fill="#E2ECEA"/>
  <rect x="130" y="388" width="380" height="22" rx="11" fill="#E2ECEA"/>
  <rect x="130" y="426" width="280" height="22" rx="11" fill="#E2ECEA"/>

  <rect x="690" y="300" width="380" height="34" rx="17" fill="#E1EAEA"/>
  <rect x="690" y="350" width="320" height="22" rx="11" fill="#E2ECEA"/>
  <rect x="690" y="388" width="360" height="22" rx="11" fill="#E2ECEA"/>
</svg>
