<svg width="1200" height="720" viewBox="0 0 1200 720" fill="none" xmlns="http://www.w3.org/2000/svg">
  <rect width="1200" height="720" rx="40" fill="#EEF3F2"/>
  <rect x="80" y="80" width="560" height="80" rx="20" fill="#C9DAD6"/>
  <rect x="80" y="190" width="440" height="22" rx="11" fill="#E2ECEA"/>
  <rect x="80" y="228" width="520" height="22" rx="11" fill="#E2ECEA"/>
  <rect x="80" y="266" width="360" height="22" rx="11" fill="#E2ECEA"/>

  <rect x="80" y="330" width="180" height="56" rx="18" fill="#2F6F66"/>
  <rect x="280" y="330" width="220" height="56" rx="18" fill="#FFFFFF" stroke="#C7D6D3" stroke-width="2"/>

  <rect x="700" y="120" width="420" height="520" rx="30" fill="#FFFFFF" stroke="#C7D6D3" stroke-width="2"/>
  <rect x="740" y="170" width="340" height="60" rx="18" fill="#E1EAEA"/>
  <rect x="740" y="250" width="160" height="160" rx="24" fill="#C9DAD6"/>
  <rect x="920" y="250" width="160" height="160" rx="24" fill="#E2ECEA"/>
  <rect x="740" y="430" width="160" height="160" rx="24" fill="#E2ECEA"/>
  <rect x="920" y="430" width="160" height="160" rx="24" fill="#C9DAD6"/>

  <path d="M185 354c18 0 33-15 33-33s-15-33-33-33-33 15-33 33 15 33 33 33Z" fill="#FFFFFF" opacity="0.18"/>
</svg>
