<svg width="1200" height="720" viewBox="0 0 1200 720" fill="none" xmlns="http://www.w3.org/2000/svg">
  <rect width="1200" height="720" rx="40" fill="#F4F6F5"/>
  <rect x="80" y="80" width="420" height="70" rx="20" fill="#C9DAD6"/>
  <rect x="80" y="170" width="520" height="22" rx="11" fill="#E2ECEA"/>

  <rect x="80" y="240" width="250" height="420" rx="26" fill="#FFFFFF" stroke="#C7D6D3" stroke-width="2"/>
  <rect x="360" y="240" width="250" height="420" rx="26" fill="#FFFFFF" stroke="#C7D6D3" stroke-width="2"/>
  <rect x="640" y="240" width="250" height="420" rx="26" fill="#FFFFFF" stroke="#C7D6D3" stroke-width="2"/>
  <rect x="920" y="240" width="200" height="420" rx="26" fill="#FFFFFF" stroke="#C7D6D3" stroke-width="2"/>

  <rect x="115" y="285" width="180" height="18" rx="9" fill="#E2ECEA"/>
  <rect x="395" y="285" width="180" height="18" rx="9" fill="#E2ECEA"/>
  <rect x="675" y="285" width="180" height="18" rx="9" fill="#E2ECEA"/>
  <rect x="955" y="285" width="140" height="18" rx="9" fill="#E2ECEA"/>

  <rect x="115" y="330" width="130" height="44" rx="16" fill="#2F6F66"/>
  <rect x="395" y="330" width="130" height="44" rx="16" fill="#2F6F66"/>
  <rect x="675" y="330" width="130" height="44" rx="16" fill="#2F6F66"/>
  <rect x="955" y="330" width="130" height="44" rx="16" fill="#2F6F66"/>
</svg>
