<svg width="1200" height="720" viewBox="0 0 1200 720" fill="none" xmlns="http://www.w3.org/2000/svg">
  <rect width="1200" height="720" rx="40" fill="#F4F6F5"/>
  <rect x="80" y="80" width="560" height="70" rx="20" fill="#C9DAD6"/>
  <rect x="80" y="170" width="460" height="22" rx="11" fill="#E2ECEA"/>

  <rect x="80" y="240" width="1040" height="420" rx="30" fill="#FFFFFF" stroke="#C7D6D3" stroke-width="2"/>
  <circle cx="260" cy="420" r="130" fill="#E1EAEA"/>
  <rect x="470" y="320" width="600" height="44" rx="22" fill="#EEF3F2"/>
  <rect x="470" y="386" width="520" height="44" rx="22" fill="#EEF3F2"/>
  <rect x="470" y="452" width="560" height="44" rx="22" fill="#EEF3F2"/>
  <rect x="470" y="518" width="480" height="44" rx="22" fill="#EEF3F2"/>

  <path d="M260 350c20 0 36-16 36-36s-16-36-36-36-36 16-36 36 16 36 36 36Z" fill="#2F6F66" opacity="0.35"/>
  <rect x="238" y="390" width="44" height="200" rx="22" fill="#2F6F66" opacity="0.35"/>
</svg>
